<mxfile host="app.diagrams.net" agent="Mozilla/5.0 (Windows NT 10.0; Win64; x64) AppleWebKit/537.36 (KHTML, like Gecko) Chrome/137.0.0.0 Safari/537.36" version="28.2.3">
  <diagram name="หน้า-1" id="IapAUFDnSkHYvgYku9Ef">
    <mxGraphModel dx="1426" dy="743" grid="1" gridSize="10" guides="1" tooltips="1" connect="1" arrows="1" fold="1" page="1" pageScale="1" pageWidth="1654" pageHeight="2336" math="0" shadow="0">
      <root>
        <mxCell id="0" />
        <mxCell id="1" parent="0" />
        <mxCell id="l1OhBcwiASn6IOWEv46y-1" style="edgeStyle=orthogonalEdgeStyle;rounded=0;orthogonalLoop=1;jettySize=auto;html=1;entryX=0.5;entryY=0;entryDx=0;entryDy=0;" parent="1" source="l1OhBcwiASn6IOWEv46y-2" target="l1OhBcwiASn6IOWEv46y-4" edge="1">
          <mxGeometry relative="1" as="geometry" />
        </mxCell>
        <mxCell id="l1OhBcwiASn6IOWEv46y-2" value="Start" style="ellipse;whiteSpace=wrap;html=1;" parent="1" vertex="1">
          <mxGeometry x="751" y="290" width="130" height="50" as="geometry" />
        </mxCell>
        <mxCell id="l1OhBcwiASn6IOWEv46y-3" style="edgeStyle=orthogonalEdgeStyle;rounded=0;orthogonalLoop=1;jettySize=auto;html=1;" parent="1" source="l1OhBcwiASn6IOWEv46y-4" target="l1OhBcwiASn6IOWEv46y-6" edge="1">
          <mxGeometry relative="1" as="geometry" />
        </mxCell>
        <mxCell id="l1OhBcwiASn6IOWEv46y-4" value="แสดงข้อความ&#xa;Test case:" style="shape=parallelogram;perimeter=parallelogramPerimeter;whiteSpace=wrap;html=1;" parent="1" vertex="1">
          <mxGeometry x="711" y="380" width="210" height="60" as="geometry" />
        </mxCell>
        <mxCell id="l1OhBcwiASn6IOWEv46y-5" style="edgeStyle=orthogonalEdgeStyle;rounded=0;orthogonalLoop=1;jettySize=auto;html=1;" parent="1" source="l1OhBcwiASn6IOWEv46y-6" target="l1OhBcwiASn6IOWEv46y-8" edge="1">
          <mxGeometry relative="1" as="geometry" />
        </mxCell>
        <mxCell id="l1OhBcwiASn6IOWEv46y-6" value="รับ a, b, c (จำนวนเต็ม)" style="shape=parallelogram;perimeter=parallelogramPerimeter;whiteSpace=wrap;html=1;" parent="1" vertex="1">
          <mxGeometry x="710" y="490" width="210" height="60" as="geometry" />
        </mxCell>
        <mxCell id="l1OhBcwiASn6IOWEv46y-7" style="edgeStyle=orthogonalEdgeStyle;rounded=0;orthogonalLoop=1;jettySize=auto;html=1;entryX=0.5;entryY=0;entryDx=0;entryDy=0;" parent="1" source="l1OhBcwiASn6IOWEv46y-8" target="l1OhBcwiASn6IOWEv46y-10" edge="1">
          <mxGeometry relative="1" as="geometry" />
        </mxCell>
        <mxCell id="l1OhBcwiASn6IOWEv46y-8" value="แสดงข้อความ&#xa;Answer =" style="shape=parallelogram;perimeter=parallelogramPerimeter;whiteSpace=wrap;html=1;" parent="1" vertex="1">
          <mxGeometry x="710" y="610" width="210" height="60" as="geometry" />
        </mxCell>
        <mxCell id="l1OhBcwiASn6IOWEv46y-9" style="edgeStyle=orthogonalEdgeStyle;rounded=0;orthogonalLoop=1;jettySize=auto;html=1;" parent="1" source="l1OhBcwiASn6IOWEv46y-10" target="l1OhBcwiASn6IOWEv46y-12" edge="1">
          <mxGeometry relative="1" as="geometry" />
        </mxCell>
        <mxCell id="l1OhBcwiASn6IOWEv46y-10" value="sum = a + b + c" style="whiteSpace=wrap;html=1;" parent="1" vertex="1">
          <mxGeometry x="720" y="720" width="190" height="60" as="geometry" />
        </mxCell>
        <mxCell id="l1OhBcwiASn6IOWEv46y-11" style="edgeStyle=orthogonalEdgeStyle;rounded=0;orthogonalLoop=1;jettySize=auto;html=1;" parent="1" source="l1OhBcwiASn6IOWEv46y-12" target="l1OhBcwiASn6IOWEv46y-13" edge="1">
          <mxGeometry relative="1" as="geometry" />
        </mxCell>
        <mxCell id="l1OhBcwiASn6IOWEv46y-12" value="แสดงผลลัพธ์&#xa;sum" style="shape=parallelogram;perimeter=parallelogramPerimeter;whiteSpace=wrap;html=1;" parent="1" vertex="1">
          <mxGeometry x="710" y="840" width="210" height="60" as="geometry" />
        </mxCell>
        <mxCell id="l1OhBcwiASn6IOWEv46y-13" value="Stop" style="ellipse;whiteSpace=wrap;html=1;" parent="1" vertex="1">
          <mxGeometry x="750" y="950" width="130" height="50" as="geometry" />
        </mxCell>
      </root>
    </mxGraphModel>
  </diagram>
</mxfile>
